<svg id="Warstwa_1" data-name="Warstwa 1" xmlns="http://www.w3.org/2000/svg" xmlns:xlink="http://www.w3.org/1999/xlink" viewBox="0 0 1279.91 1280.37"><defs><style>.cls-1{fill:url(#Gradient_bez_nazwy_24);}</style><radialGradient id="Gradient_bez_nazwy_24" cx="639.95" cy="639.72" r="640.07" gradientTransform="translate(504.08 -129.44) rotate(45) scale(1 0.7)" gradientUnits="userSpaceOnUse"><stop offset="0" stop-color="#cd7f84"/><stop offset="0.99" stop-color="#7b0000"/></radialGradient></defs><title>crab</title><path class="cls-1" d="M1278.86,845.36l-276.35,65.57,65.57-276.35c-83.75-7.48-175.7,25-246,95.34A335.94,335.94,0,0,0,747.5,842.11c-30.75-61.93-74.6-123.41-130.45-179.26C560.17,606,497.46,561.54,434.38,530.72a336.28,336.28,0,0,0,109.14-73.36c70.31-70.3,102.82-162.25,95.34-246L362.51,276.93,428.08.58c-83.75-7.48-175.7,25-246,95.34-116,116-129.17,291-29.36,390.8,1.29,1.29,2.59,2.54,3.9,3.79-35.44,10.21-66.9,27.92-92.53,53.55C-55.8,664-2.61,911.51,182.89,1097s433.06,238.69,553,118.8c26.75-26.75,44.87-59.85,54.84-97.19.68.7,1.35,1.41,2,2.1,99.81,99.81,274.78,86.67,390.8-29.36C1253.83,1021.06,1286.34,929.11,1278.86,845.36Z" transform="translate(0 0.47)"/></svg>