<?xml version="1.0" encoding="utf-8"?>
<!-- Generator: Adobe Illustrator 22.1.0, SVG Export Plug-In . SVG Version: 6.00 Build 0)  -->
<svg version="1.1" id="Warstwa_1" xmlns="http://www.w3.org/2000/svg" xmlns:xlink="http://www.w3.org/1999/xlink" x="0px" y="0px"
	 viewBox="0 0 1280 1280" enable-background="new 0 0 1280 1280" xml:space="preserve">
<path fill="#FFFFFF" d="M1278.9,845.4l-276.3,65.6l65.6-276.3c-83.8-7.5-175.7,25-246,95.3c-33.5,33.5-58.5,72-74.6,112.2
	c-30.7-61.9-74.6-123.4-130.5-179.3C560.2,606,497.5,561.5,434.4,530.7c39.1-16.1,76.4-40.7,109.1-73.4
	c70.3-70.3,102.8-162.2,95.3-246l-276.3,65.6L428.1,0.6c-83.8-7.5-175.7,25-246,95.3c-116,116-129.2,291-29.4,390.8
	c1.3,1.3,2.6,2.5,3.9,3.8c-35.4,10.2-66.9,27.9-92.5,53.5C-55.8,663.9-2.6,911.5,182.9,1097s433.1,238.7,553,118.8
	c26.7-26.7,44.9-59.8,54.8-97.2c0.7,0.7,1.3,1.4,2,2.1c99.8,99.8,274.8,86.7,390.8-29.4C1253.8,1021.1,1286.3,929.1,1278.9,845.4z"
	/>
</svg>
