<svg id="Warstwa_1" data-name="Warstwa 1" xmlns="http://www.w3.org/2000/svg" xmlns:xlink="http://www.w3.org/1999/xlink" viewBox="0 0 1330.96 500.18"><defs><style>.cls-1{fill:url(#Gradient_bez_nazwy_2);}.cls-2{font-size:203.03px;fill:#fff;font-family:Exo-Black-Italic, Exo;font-style:italic;letter-spacing:0em;}.cls-3{letter-spacing:-0.02em;}.cls-4{letter-spacing:0em;}</style><radialGradient id="Gradient_bez_nazwy_2" cx="222.02" cy="1025.39" r="308.92" gradientTransform="matrix(0.57, 0.57, 0.4, -0.4, 543.07, 496.92)" gradientUnits="userSpaceOnUse"><stop offset="0" stop-color="#cd7f84"/><stop offset="0.99" stop-color="#7b0000"/></radialGradient></defs><title>crab-logo-white</title><path class="cls-1" d="M1330.55,293.52l-108,25.61,25.61-107.95c-32.71-2.93-68.63,9.76-96.1,37.24A131.16,131.16,0,0,0,1123,292.25c-12-24.19-29.14-48.21-51-70-22.22-22.21-46.72-39.58-71.36-51.62A131.26,131.26,0,0,0,1043.28,142c27.47-27.47,40.17-63.39,37.25-96.1l-108,25.61,25.62-108c-32.72-2.92-68.64,9.77-96.1,37.25-45.32,45.31-50.46,113.68-11.47,152.67.5.5,1,1,1.52,1.48A82.77,82.77,0,0,0,856,175.82c-46.83,46.85-26,143.54,46.41,216s169.18,93.25,216,46.41a83.33,83.33,0,0,0,21.43-38l.78.82c39,39,107.34,33.86,152.66-11.47C1320.77,362.16,1333.47,326.24,1330.55,293.52Z" transform="translate(0.01 36.91)"/><text class="cls-2" transform="translate(0 361.63) scale(0.9 1.25)">League C<tspan class="cls-3" x="817.57" y="0">r</tspan><tspan class="cls-4" x="896.95" y="0">ab</tspan></text></svg>